<svg width="46" height="46" viewBox="0 0 46 46" fill="none" xmlns="http://www.w3.org/2000/svg">
<path d="M30.9062 25.1562L38.8125 17.25M20.8438 19.4062L26.5938 25.1562M7.1875 28.75L16.5312 19.4062M40.9688 17.25C41.5406 17.25 42.0891 17.0228 42.4935 16.6184C42.8978 16.2141 43.125 15.6656 43.125 15.0938C43.125 14.5219 42.8978 13.9734 42.4935 13.5691C42.0891 13.1647 41.5406 12.9375 40.9688 12.9375C40.3969 12.9375 39.8484 13.1647 39.444 13.5691C39.0397 13.9734 38.8125 14.5219 38.8125 15.0938C38.8125 15.6656 39.0397 16.2141 39.444 16.6184C39.8484 17.0228 40.3969 17.25 40.9688 17.25ZM28.75 29.4688C29.3219 29.4688 29.8703 29.2416 30.2747 28.8372C30.6791 28.4328 30.9062 27.8844 30.9062 27.3125C30.9062 26.7406 30.6791 26.1922 30.2747 25.7878C29.8703 25.3834 29.3219 25.1562 28.75 25.1562C28.1781 25.1562 27.6297 25.3834 27.2253 25.7878C26.8209 26.1922 26.5938 26.7406 26.5938 27.3125C26.5938 27.8844 26.8209 28.4328 27.2253 28.8372C27.6297 29.2416 28.1781 29.4688 28.75 29.4688ZM18.6875 19.4062C19.2594 19.4062 19.8078 19.1791 20.2122 18.7747C20.6166 18.3703 20.8438 17.8219 20.8438 17.25C20.8438 16.6781 20.6166 16.1297 20.2122 15.7253C19.8078 15.3209 19.2594 15.0938 18.6875 15.0938C18.1156 15.0938 17.5672 15.3209 17.1628 15.7253C16.7584 16.1297 16.5312 16.6781 16.5312 17.25C16.5312 17.8219 16.7584 18.3703 17.1628 18.7747C17.5672 19.1791 18.1156 19.4062 18.6875 19.4062ZM5.03125 33.0625C5.60312 33.0625 6.15157 32.8353 6.55595 32.431C6.96032 32.0266 7.1875 31.4781 7.1875 30.9062C7.1875 30.3344 6.96032 29.7859 6.55595 29.3816C6.15157 28.9772 5.60312 28.75 5.03125 28.75C4.45938 28.75 3.91093 28.9772 3.50655 29.3816C3.10218 29.7859 2.875 30.3344 2.875 30.9062C2.875 31.4781 3.10218 32.0266 3.50655 32.431C3.91093 32.8353 4.45938 33.0625 5.03125 33.0625Z" stroke="url(#paint0_linear_436_161)" stroke-width="1.91667" stroke-linecap="round" stroke-linejoin="round"/>
<defs>
<linearGradient id="paint0_linear_436_161" x1="5.03125" y1="28.75" x2="5.03125" y2="33.0625" gradientUnits="userSpaceOnUse">
<stop stop-color="#C3C3C3"/>
<stop offset="1" stop-color="#7E7E7E"/>
</linearGradient>
</defs>
</svg>
