<svg width="46" height="46" viewBox="0 0 46 46" fill="none" xmlns="http://www.w3.org/2000/svg">
<path d="M35.3874 17.0679C34.8471 17.6046 34.1164 17.9057 33.3548 17.9057C32.5932 17.9057 31.8626 17.6046 31.3222 17.0679L28.934 14.6817C28.3963 14.1414 28.0945 13.4103 28.0945 12.6481C28.0945 11.8859 28.3963 11.1547 28.934 10.6145L34.339 5.20949C34.3496 5.19883 34.3574 5.18574 34.3617 5.17138C34.3661 5.15701 34.3668 5.1418 34.3639 5.12707C34.361 5.11265 34.3546 5.09917 34.3452 5.08781C34.3358 5.07645 34.3239 5.06756 34.3103 5.06191C30.8219 3.56691 26.3005 4.32782 23.4293 7.17982C20.6828 9.90532 20.5256 14.007 21.5318 17.5873C21.6746 18.0958 21.6743 18.6338 21.5309 19.1421C21.3875 19.6503 21.1066 20.1092 20.7192 20.4681L5.75001 34.1377C5.3118 34.5303 4.95821 35.008 4.71085 35.5418C4.46348 36.0755 4.32755 36.6541 4.31134 37.2422C4.29513 37.8303 4.39898 38.4155 4.61656 38.9621C4.83414 39.5087 5.16088 40.0052 5.57681 40.4212C5.99273 40.8373 6.48912 41.1642 7.03564 41.3819C7.58216 41.5997 8.16734 41.7037 8.75542 41.6877C9.34351 41.6717 9.92215 41.5359 10.456 41.2887C10.9898 41.0415 11.4677 40.6881 11.8603 40.25L25.6833 25.2425C26.0375 24.861 26.4888 24.5831 26.9888 24.4385C27.4889 24.294 28.0189 24.2884 28.5219 24.4222C32.0754 25.3728 36.1177 25.1946 38.8298 22.517C41.7489 19.642 42.3775 14.5628 40.963 11.6533C40.9566 11.6405 40.9471 11.6294 40.9354 11.621C40.9237 11.6127 40.9102 11.6073 40.8959 11.6054C40.8821 11.6033 40.868 11.6045 40.8547 11.6088C40.8413 11.6131 40.8292 11.6205 40.8193 11.6303L35.3874 17.066V17.0679Z" stroke="url(#paint0_linear_436_173)" stroke-width="1.91667" stroke-linecap="round"/>
<path d="M8.625 38.8125C9.00625 38.8125 9.37188 38.6611 9.64147 38.3915C9.91105 38.1219 10.0625 37.7562 10.0625 37.375C10.0625 36.9938 9.91105 36.6281 9.64147 36.3585C9.37188 36.0889 9.00625 35.9375 8.625 35.9375C8.24375 35.9375 7.87812 36.0889 7.60853 36.3585C7.33895 36.6281 7.1875 36.9938 7.1875 37.375C7.1875 37.7562 7.33895 38.1219 7.60853 38.3915C7.87812 38.6611 8.24375 38.8125 8.625 38.8125Z" fill="url(#paint1_linear_436_173)"/>
<defs>
<linearGradient id="paint0_linear_436_173" x1="22.9986" y1="4.31274" x2="22.9986" y2="41.6893" gradientUnits="userSpaceOnUse">
<stop stop-color="#C3C3C3"/>
<stop offset="1" stop-color="#7E7E7E"/>
</linearGradient>
<linearGradient id="paint1_linear_436_173" x1="8.625" y1="35.9375" x2="8.625" y2="38.8125" gradientUnits="userSpaceOnUse">
<stop stop-color="#C3C3C3"/>
<stop offset="1" stop-color="#7E7E7E"/>
</linearGradient>
</defs>
</svg>
