<svg width="46" height="46" viewBox="0 0 46 46" fill="none" xmlns="http://www.w3.org/2000/svg">
<path d="M34.5 20.125V36.6562C34.5 37.6094 34.1214 38.5235 33.4474 39.1974C32.7735 39.8714 31.8594 40.25 30.9062 40.25H9.34375C8.39063 40.25 7.47654 39.8714 6.80258 39.1974C6.12863 38.5235 5.75 37.6094 5.75 36.6562V15.0937C5.75 14.1406 6.12863 13.2265 6.80258 12.5526C7.47654 11.8786 8.39063 11.5 9.34375 11.5H24.3896" stroke="url(#paint0_linear_436_169)" stroke-width="1.91667" stroke-linecap="round" stroke-linejoin="round"/>
<path d="M41.3233 4.78401C41.1918 4.63962 41.0323 4.52338 40.8546 4.44233C40.6769 4.36127 40.4846 4.31708 40.2894 4.31242C40.0941 4.30777 39.8999 4.34274 39.7186 4.41523C39.5372 4.48772 39.3724 4.59622 39.2341 4.73418L38.1244 5.8401C37.9898 5.97486 37.9142 6.15755 37.9142 6.34801C37.9142 6.53848 37.9898 6.72117 38.1244 6.85593L39.1441 7.87176C39.2107 7.93893 39.29 7.99224 39.3773 8.02862C39.4646 8.065 39.5583 8.08373 39.6529 8.08373C39.7475 8.08373 39.8412 8.065 39.9286 8.02862C40.0159 7.99224 40.0952 7.93893 40.1618 7.87176L41.2447 6.7946C41.5128 6.53318 41.6702 6.17878 41.6845 5.80461C41.6988 5.43045 41.5688 5.06509 41.3214 4.78401H41.3233Z" fill="url(#paint1_linear_436_169)"/>
<path d="M35.88 8.0826L19.6592 24.2727C19.561 24.3705 19.4897 24.4919 19.4522 24.6253L18.7028 26.8602C18.6847 26.9207 18.6833 26.985 18.6987 27.0462C18.7141 27.1075 18.7457 27.1634 18.7903 27.2082C18.8349 27.2529 18.8907 27.2848 18.9519 27.3005C19.013 27.3162 19.0773 27.315 19.1379 27.2972L21.3708 26.5458C21.5042 26.5082 21.6256 26.4369 21.7235 26.3388L37.9136 10.1181C38.063 9.96672 38.1469 9.76254 38.1469 9.54981C38.1469 9.33707 38.063 9.13289 37.9136 8.98151L37.0204 8.08068C36.8688 7.92946 36.6634 7.84454 36.4492 7.84454C36.2351 7.84454 36.0297 7.92946 35.8781 8.08068L35.88 8.0826Z" fill="url(#paint2_linear_436_169)"/>
<defs>
<linearGradient id="paint0_linear_436_169" x1="20.125" y1="11.5" x2="20.125" y2="40.25" gradientUnits="userSpaceOnUse">
<stop stop-color="#C3C3C3"/>
<stop offset="1" stop-color="#7E7E7E"/>
</linearGradient>
<linearGradient id="paint1_linear_436_169" x1="39.7999" y1="4.31201" x2="39.7999" y2="8.08373" gradientUnits="userSpaceOnUse">
<stop stop-color="#C3C3C3"/>
<stop offset="1" stop-color="#7E7E7E"/>
</linearGradient>
<linearGradient id="paint2_linear_436_169" x1="28.4175" y1="7.84454" x2="28.4175" y2="27.3115" gradientUnits="userSpaceOnUse">
<stop stop-color="#C3C3C3"/>
<stop offset="1" stop-color="#7E7E7E"/>
</linearGradient>
</defs>
</svg>
